<?xml version="1.0" encoding="UTF-8"?>
<svg width="136px" height="36px" viewBox="0 0 136 36" version="1.1" xmlns="http://www.w3.org/2000/svg" xmlns:xlink="http://www.w3.org/1999/xlink">
    <!-- Generator: Sketch 51.3 (57544) - http://www.bohemiancoding.com/sketch -->
    <title>Rectangle</title>
    <desc>Created with Sketch.</desc>
    <defs></defs>
    <g id="Page-1" stroke="none" stroke-width="1" fill="none" fill-rule="evenodd">
        <rect id="Rectangle" fill="#1BC600" fill-rule="nonzero" x="0" y="0" width="136" height="36"></rect>
        <path d="M31.9737367,29.0066871 L28.3737367,29.0066871 L29.7937367,17.4866871 L29.9537367,14.4066871 L33.2537367,14.4066871 L33.3737367,15.5466871 C34.0137367,14.8466871 35.1537367,14.0866871 36.7137367,14.0866871 C39.5337367,14.0866871 40.9337367,15.5866871 40.9337367,18.4266871 C40.9337367,22.5266871 39.0537367,25.3266871 35.3337367,25.3266871 C33.9737367,25.3266871 33.0737367,24.7866871 32.5537367,24.2066871 L31.9737367,29.0066871 Z M33.2737367,18.3466871 L32.9537367,21.0666871 C33.3337367,21.6666871 33.9937367,22.0666871 34.9337367,22.0666871 C36.0737367,22.0666871 37.1937367,21.2266871 37.1937367,19.2066871 C37.1937367,17.9066871 36.4737367,17.3466871 35.5137367,17.3466871 C34.5737367,17.3466871 33.8137367,17.7466871 33.2737367,18.3466871 Z M47.3137367,22.0866871 C48.5737367,22.0866871 49.6537367,21.4666871 49.6537367,19.0466871 C49.6537367,17.7066871 48.9737367,17.3266871 47.9137367,17.3266871 C46.6737367,17.3266871 45.5737367,17.9466871 45.5737367,20.3466871 C45.5737367,21.7066871 46.2737367,22.0866871 47.3137367,22.0866871 Z M46.9337367,25.3266871 C43.7937367,25.3266871 41.9137367,23.7866871 41.9137367,20.7466871 C41.9137367,16.3066871 44.6137367,14.0866871 48.3137367,14.0866871 C51.4537367,14.0866871 53.3137367,15.6066871 53.3137367,18.6466871 C53.3137367,23.0866871 50.6537367,25.3266871 46.9337367,25.3266871 Z M62.1137367,21.1466871 L62.0537367,17.4866871 L61.1137367,21.1466871 L59.9937367,25.0066871 L54.9737367,25.0066871 L54.3537367,14.4066871 L58.0337367,14.4066871 L57.9937367,18.4066871 L57.8737367,21.6866871 L58.8937367,18.1666871 L60.0937367,14.4066871 L64.7537367,14.4066871 L64.9937367,18.1666871 L65.1737367,21.6866871 L65.8537367,18.4066871 L66.8137367,14.4066871 L70.5937367,14.4066871 L67.3737367,25.0066871 L62.3137367,25.0066871 L62.1137367,21.1466871 Z M81.6737367,20.7266871 L74.1537367,20.7266871 C74.1337367,21.8866871 74.8137367,22.3866871 76.0137367,22.3866871 C77.2537367,22.3866871 77.7137367,21.9866871 77.8137367,21.5866871 L81.1937367,22.7466871 C80.6337367,24.1466871 78.9737367,25.3266871 75.7937367,25.3266871 C72.4137367,25.3266871 70.5137367,23.7266871 70.5137367,20.6866871 C70.5137367,16.4066871 73.2137367,14.0866871 76.9537367,14.0866871 C80.1337367,14.0866871 81.8737367,15.6466871 81.8737367,18.6066871 C81.8737367,18.9466871 81.8337367,19.7266871 81.6737367,20.7266871 Z M76.5937367,17.0266871 C75.4537367,17.0266871 74.6337367,17.6666871 74.4737367,18.6066871 L78.0937367,18.6066871 C78.3137367,17.6266871 77.6337367,17.0266871 76.5937367,17.0266871 Z M90.0537367,14.0866871 C90.7137367,14.0866871 91.1137367,14.1666871 91.4937367,14.3466871 L90.8137367,17.7066871 C90.5537367,17.6266871 90.2137367,17.5466871 89.8337367,17.5466871 C88.9937367,17.5466871 87.7537367,17.7866871 87.0537367,18.5466871 L86.2737367,25.0066871 L82.6737367,25.0066871 L83.5937367,17.4866871 L83.7737367,14.4066871 L87.0737367,14.4066871 L87.1737367,15.5466871 C87.8537367,14.6466871 88.9937367,14.0866871 90.0537367,14.0866871 Z M91.3937367,25.0066871 L93.3537367,9.00668712 L96.9537367,9.00668712 L94.9937367,25.0066871 L91.3937367,25.0066871 Z M97.1937367,25.0066871 L98.4937367,14.4066871 L102.093737,14.4066871 L100.793737,25.0066871 L97.1937367,25.0066871 Z M102.733737,9.40668712 L102.293737,13.0466871 L98.6137367,13.0466871 L99.0537367,9.40668712 L102.733737,9.40668712 Z M107.393737,14.4066871 L107.493737,15.5466871 C108.313737,14.7266871 109.453737,14.0866871 111.033737,14.0866871 C113.833737,14.0866871 115.233737,15.3466871 114.833737,18.5066871 L114.053737,25.0066871 L110.453737,25.0066871 L111.193737,18.9666871 C111.333737,17.7466871 110.793737,17.3266871 109.833737,17.3466871 C108.653737,17.3666871 107.793737,17.9266871 107.393737,18.3466871 L106.593737,25.0066871 L102.993737,25.0066871 L103.913737,17.4866871 L104.093737,14.4066871 L107.393737,14.4066871 Z M127.193737,20.7266871 L119.673737,20.7266871 C119.653737,21.8866871 120.333737,22.3866871 121.533737,22.3866871 C122.773737,22.3866871 123.233737,21.9866871 123.333737,21.5866871 L126.713737,22.7466871 C126.153737,24.1466871 124.493737,25.3266871 121.313737,25.3266871 C117.933737,25.3266871 116.033737,23.7266871 116.033737,20.6866871 C116.033737,16.4066871 118.733737,14.0866871 122.473737,14.0866871 C125.653737,14.0866871 127.393737,15.6466871 127.393737,18.6066871 C127.393737,18.9466871 127.353737,19.7266871 127.193737,20.7266871 Z M122.113737,17.0266871 C120.973737,17.0266871 120.153737,17.6666871 119.993737,18.6066871 L123.613737,18.6066871 C123.833737,17.6266871 123.153737,17.0266871 122.113737,17.0266871 Z" id="powerline" fill="#000000"></path>
        <polygon id="Combined-Shape" stroke="#000000" fill="#000000" fill-rule="nonzero" points="16.0701874 20.1950388 7.60669423 20.1950388 17.612248 9.00668712 14.0701874 17.2049612 22.5336806 17.2049612 12.5281268 28.3933129"></polygon>
    </g>
</svg>